<svg xmlns="http://www.w3.org/2000/svg" width="1150" height="360" viewBox="0 0 1150 360" font-family="Segoe UI, Arial, sans-serif" font-size="12"><defs><marker id="arrow" markerWidth="10" markerHeight="10" refX="9" refY="3" orient="auto" markerUnits="strokeWidth"><path d="M0,0 L0,6 L9,3 z" fill="#475569" /></marker><filter id="shadow" x="-20%" y="-20%" width="140%" height="140%"><feDropShadow dx="2" dy="2" stdDeviation="2" flood-color="#000000" flood-opacity="0.12" /></filter></defs><rect width="100%" height="100%" fill="#ffffff" /><text x="575" y="24" text-anchor="middle" font-size="16" font-weight="600" fill="#1e293b">Input → Processing → Output</text><g filter="url(#shadow)"><rect x="30" y="80" width="130" height="60" rx="6" ry="6" fill="#dbeafe" stroke="#2563eb" stroke-width="1" /><text x="95" y="114" text-anchor="middle" dominant-baseline="middle" font-size="12" font-weight="600" fill="#1e293b" style="white-space: pre;">Functional<tspan x="95" dy="14">Specification</tspan></text></g><g filter="url(#shadow)"><rect x="30" y="180" width="130" height="60" rx="6" ry="6" fill="#dbeafe" stroke="#2563eb" stroke-width="1" /><text x="95" y="214" text-anchor="middle" dominant-baseline="middle" font-size="12" font-weight="600" fill="#1e293b" style="white-space: pre;">Manual Test<tspan x="95" dy="14">Cases</tspan></text></g><g filter="url(#shadow)"><rect x="30" y="280" width="130" height="60" rx="6" ry="6" fill="#dbeafe" stroke="#2563eb" stroke-width="1" /><text x="95" y="314" text-anchor="middle" dominant-baseline="middle" font-size="12" font-weight="600" fill="#1e293b" style="white-space: pre;">Expected<tspan x="95" dy="14">Output</tspan></text></g><g filter="url(#shadow)"><rect x="210" y="160" width="140" height="80" rx="6" ry="6" fill="#fef3c7" stroke="#d97706" stroke-width="1" /><text x="280" y="204" text-anchor="middle" dominant-baseline="middle" font-size="12" font-weight="600" fill="#1e293b" style="white-space: pre;">Document<tspan x="280" dy="14">Parser</tspan></text></g><g filter="url(#shadow)"><rect x="400" y="160" width="140" height="80" rx="6" ry="6" fill="#d1fae5" stroke="#059669" stroke-width="1" /><text x="470" y="204" text-anchor="middle" dominant-baseline="middle" font-size="12" font-weight="600" fill="#1e293b" style="white-space: pre;">Project<tspan x="470" dy="14">Knowledge Model</tspan></text></g><g filter="url(#shadow)"><rect x="590" y="160" width="140" height="80" rx="6" ry="6" fill="#e0e7ff" stroke="#4f46e5" stroke-width="1" /><text x="660" y="204" text-anchor="middle" dominant-baseline="middle" font-size="12" font-weight="600" fill="#1e293b" style="white-space: pre;">LLM<tspan x="660" dy="14">Generation</tspan></text></g><g filter="url(#shadow)"><rect x="790" y="40" width="140" height="60" rx="6" ry="6" fill="#dcfce7" stroke="#16a34a" stroke-width="1" /><text x="860" y="74" text-anchor="middle" dominant-baseline="middle" font-size="12" font-weight="600" fill="#1e293b" style="white-space: pre;">Gherkin<tspan x="860" dy="14">Feature Files</tspan></text></g><g filter="url(#shadow)"><rect x="790" y="120" width="140" height="60" rx="6" ry="6" fill="#dcfce7" stroke="#16a34a" stroke-width="1" /><text x="860" y="154" text-anchor="middle" dominant-baseline="middle" font-size="12" font-weight="600" fill="#1e293b" style="white-space: pre;">Page Object<tspan x="860" dy="14">Classes</tspan></text></g><g filter="url(#shadow)"><rect x="790" y="200" width="140" height="60" rx="6" ry="6" fill="#dcfce7" stroke="#16a34a" stroke-width="1" /><text x="860" y="234" text-anchor="middle" dominant-baseline="middle" font-size="12" font-weight="600" fill="#1e293b" style="white-space: pre;">Step Definition<tspan x="860" dy="14">Classes</tspan></text></g><g filter="url(#shadow)"><rect x="790" y="280" width="140" height="60" rx="6" ry="6" fill="#dcfce7" stroke="#16a34a" stroke-width="1" /><text x="860" y="314" text-anchor="middle" dominant-baseline="middle" font-size="12" font-weight="600" fill="#1e293b" style="white-space: pre;">Utilities<tspan x="860" dy="14">&amp; pom.xml</tspan></text></g><g filter="url(#shadow)"><rect x="980" y="140" width="130" height="80" rx="6" ry="6" fill="#fce7f3" stroke="#db2777" stroke-width="1" /><text x="1045" y="184" text-anchor="middle" dominant-baseline="middle" font-size="12" font-weight="600" fill="#1e293b" style="white-space: pre;">ZIP + HTML<tspan x="1045" dy="14">Report</tspan></text></g><line x1="160" y1="140" x2="210" y2="160" stroke="#475569" stroke-width="1.5" marker-end="url(#arrow)" /><line x1="160" y1="180" x2="210" y2="240" stroke="#475569" stroke-width="1.5" marker-end="url(#arrow)" /><line x1="160" y1="280" x2="210" y2="240" stroke="#475569" stroke-width="1.5" marker-end="url(#arrow)" /><line x1="350" y1="200" x2="400" y2="200" stroke="#475569" stroke-width="1.5" marker-end="url(#arrow)" /><line x1="540" y1="200" x2="590" y2="200" stroke="#475569" stroke-width="1.5" marker-end="url(#arrow)" /><line x1="730" y1="160" x2="790" y2="100" stroke="#475569" stroke-width="1.5" marker-end="url(#arrow)" /><line x1="730" y1="160" x2="790" y2="180" stroke="#475569" stroke-width="1.5" marker-end="url(#arrow)" /><line x1="730" y1="240" x2="790" y2="200" stroke="#475569" stroke-width="1.5" marker-end="url(#arrow)" /><line x1="730" y1="240" x2="790" y2="280" stroke="#475569" stroke-width="1.5" marker-end="url(#arrow)" /><line x1="930" y1="100" x2="980" y2="140" stroke="#475569" stroke-width="1.5" marker-end="url(#arrow)" /><line x1="930" y1="180" x2="980" y2="140" stroke="#475569" stroke-width="1.5" marker-end="url(#arrow)" /><line x1="930" y1="200" x2="980" y2="220" stroke="#475569" stroke-width="1.5" marker-end="url(#arrow)" /><line x1="930" y1="280" x2="980" y2="220" stroke="#475569" stroke-width="1.5" marker-end="url(#arrow)" /></svg>