<svg xmlns="http://www.w3.org/2000/svg" width="920" height="300" viewBox="0 0 920 300" font-family="Segoe UI, Arial, sans-serif" font-size="12"><defs><marker id="arrow" markerWidth="10" markerHeight="10" refX="9" refY="3" orient="auto" markerUnits="strokeWidth"><path d="M0,0 L0,6 L9,3 z" fill="#475569" /></marker><filter id="shadow" x="-20%" y="-20%" width="140%" height="140%"><feDropShadow dx="2" dy="2" stdDeviation="2" flood-color="#000000" flood-opacity="0.12" /></filter></defs><rect width="100%" height="100%" fill="#ffffff" /><text x="460" y="24" text-anchor="middle" font-size="16" font-weight="600" fill="#1e293b">Document Parsing Flow</text><g filter="url(#shadow)"><rect x="30" y="120" width="120" height="60" rx="6" ry="6" fill="#dbeafe" stroke="#2563eb" stroke-width="1" /><text x="90" y="154" text-anchor="middle" dominant-baseline="middle" font-size="12" font-weight="600" fill="#1e293b" style="white-space: pre;">Uploaded File</text></g><g filter="url(#shadow)"><rect x="190" y="120" width="120" height="60" rx="6" ry="6" fill="#fef3c7" stroke="#d97706" stroke-width="1" /><text x="250" y="154" text-anchor="middle" dominant-baseline="middle" font-size="12" font-weight="600" fill="#1e293b" style="white-space: pre;">Detect File<tspan x="250" dy="14">Type</tspan></text></g><g filter="url(#shadow)"><rect x="350" y="40" width="130" height="55" rx="6" ry="6" fill="#fef3c7" stroke="#d97706" stroke-width="1" /><text x="415" y="71" text-anchor="middle" dominant-baseline="middle" font-size="11" font-weight="500" fill="#1e293b" style="white-space: pre;">DOCX Extractor<tspan x="415" dy="13">paragraphs + tables</tspan></text></g><g filter="url(#shadow)"><rect x="350" y="120" width="130" height="55" rx="6" ry="6" fill="#fef3c7" stroke="#d97706" stroke-width="1" /><text x="415" y="151" text-anchor="middle" dominant-baseline="middle" font-size="11" font-weight="500" fill="#1e293b" style="white-space: pre;">XLSX Extractor<tspan x="415" dy="13">sheets → rows</tspan></text></g><g filter="url(#shadow)"><rect x="350" y="200" width="130" height="55" rx="6" ry="6" fill="#fef3c7" stroke="#d97706" stroke-width="1" /><text x="415" y="231" text-anchor="middle" dominant-baseline="middle" font-size="11" font-weight="500" fill="#1e293b" style="white-space: pre;">TXT / CSV<tspan x="415" dy="13">line splitter</tspan></text></g><g filter="url(#shadow)"><rect x="520" y="120" width="150" height="60" rx="6" ry="6" fill="#f8fafc" stroke="#64748b" stroke-width="1" /><text x="595" y="154" text-anchor="middle" dominant-baseline="middle" font-size="12" font-weight="600" fill="#1e293b" style="white-space: pre;">Normalize to<tspan x="595" dy="14">Content Model</tspan></text></g><g filter="url(#shadow)"><rect x="720" y="120" width="150" height="60" rx="6" ry="6" fill="#d1fae5" stroke="#059669" stroke-width="1" /><text x="795" y="154" text-anchor="middle" dominant-baseline="middle" font-size="12" font-weight="600" fill="#1e293b" style="white-space: pre;">Send to PKM<tspan x="795" dy="14">for indexing</tspan></text></g><line x1="150" y1="150" x2="190" y2="150" stroke="#475569" stroke-width="1.5" marker-end="url(#arrow)" /><line x1="310" y1="120" x2="350" y2="95" stroke="#475569" stroke-width="1.5" marker-end="url(#arrow)" /><line x1="310" y1="120" x2="350" y2="175" stroke="#475569" stroke-width="1.5" marker-end="url(#arrow)" /><line x1="310" y1="180" x2="350" y2="200" stroke="#475569" stroke-width="1.5" marker-end="url(#arrow)" /><line x1="480" y1="95" x2="520" y2="120" stroke="#475569" stroke-width="1.5" marker-end="url(#arrow)" /><line x1="480" y1="175" x2="520" y2="120" stroke="#475569" stroke-width="1.5" marker-end="url(#arrow)" /><line x1="480" y1="200" x2="520" y2="180" stroke="#475569" stroke-width="1.5" marker-end="url(#arrow)" /><line x1="670" y1="150" x2="720" y2="150" stroke="#475569" stroke-width="1.5" marker-end="url(#arrow)" /></svg>